<mxfile host="65bd71144e">
    <diagram id="OtLkDVYym_B7sT2r4jCO" name="Page-1">
        <mxGraphModel dx="1280" dy="896" grid="1" gridSize="10" guides="1" tooltips="1" connect="1" arrows="1" fold="1" page="1" pageScale="1" pageWidth="850" pageHeight="1100" math="0" shadow="0">
            <root>
                <mxCell id="0"/>
                <mxCell id="1" parent="0"/>
                <mxCell id="3" value="" style="shape=table;startSize=0;container=1;collapsible=0;childLayout=tableLayout;fillColor=#f5f5f5;fontColor=#000000;strokeColor=#666666;align=left;" parent="1" vertex="1">
                    <mxGeometry x="140" y="390" width="180" height="347" as="geometry"/>
                </mxCell>
                <mxCell id="44" style="shape=tableRow;horizontal=0;startSize=0;swimlaneHead=0;swimlaneBody=0;top=0;left=0;bottom=0;right=0;collapsible=0;dropTarget=0;fillColor=none;points=[[0,0.5],[1,0.5]];portConstraint=eastwest;fontColor=#000000;align=left;" parent="3" vertex="1">
                    <mxGeometry width="180" height="29" as="geometry"/>
                </mxCell>
                <mxCell id="45" value="recept" style="shape=partialRectangle;html=1;whiteSpace=wrap;connectable=0;overflow=hidden;fillColor=#60a917;top=0;left=0;bottom=0;right=0;pointerEvents=1;fontColor=#ffffff;align=left;strokeColor=#2D7600;" parent="44" vertex="1">
                    <mxGeometry width="180" height="29" as="geometry">
                        <mxRectangle width="180" height="29" as="alternateBounds"/>
                    </mxGeometry>
                </mxCell>
                <mxCell id="75" style="shape=tableRow;horizontal=0;startSize=0;swimlaneHead=0;swimlaneBody=0;top=0;left=0;bottom=0;right=0;collapsible=0;dropTarget=0;fillColor=none;points=[[0,0.5],[1,0.5]];portConstraint=eastwest;fontColor=#000000;align=left;" parent="3" vertex="1">
                    <mxGeometry y="29" width="180" height="29" as="geometry"/>
                </mxCell>
                <mxCell id="76" value="&lt;span style=&quot;font-weight: 700;&quot;&gt;ID (pk)&lt;/span&gt;&lt;span style=&quot;font-weight: 700;&quot;&gt;&#9;&lt;/span&gt;" style="shape=partialRectangle;html=1;whiteSpace=wrap;connectable=0;overflow=hidden;fillColor=none;top=0;left=0;bottom=0;right=0;pointerEvents=1;fontColor=#000000;align=left;" parent="75" vertex="1">
                    <mxGeometry width="180" height="29" as="geometry">
                        <mxRectangle width="180" height="29" as="alternateBounds"/>
                    </mxGeometry>
                </mxCell>
                <mxCell id="192" style="shape=tableRow;horizontal=0;startSize=0;swimlaneHead=0;swimlaneBody=0;top=0;left=0;bottom=0;right=0;collapsible=0;dropTarget=0;fillColor=none;points=[[0,0.5],[1,0.5]];portConstraint=eastwest;fontColor=#000000;align=left;" parent="3" vertex="1">
                    <mxGeometry y="58" width="180" height="29" as="geometry"/>
                </mxCell>
                <mxCell id="193" value="&lt;b&gt;gebruiker_ID&lt;/b&gt;" style="shape=partialRectangle;html=1;whiteSpace=wrap;connectable=0;overflow=hidden;fillColor=none;top=0;left=0;bottom=0;right=0;pointerEvents=1;fontColor=#000000;align=left;" parent="192" vertex="1">
                    <mxGeometry width="180" height="29" as="geometry">
                        <mxRectangle width="180" height="29" as="alternateBounds"/>
                    </mxGeometry>
                </mxCell>
                <mxCell id="12" style="shape=tableRow;horizontal=0;startSize=0;swimlaneHead=0;swimlaneBody=0;top=0;left=0;bottom=0;right=0;collapsible=0;dropTarget=0;fillColor=none;points=[[0,0.5],[1,0.5]];portConstraint=eastwest;fontColor=#000000;align=left;" parent="3" vertex="1">
                    <mxGeometry y="87" width="180" height="29" as="geometry"/>
                </mxCell>
                <mxCell id="13" value="titel" style="shape=partialRectangle;html=1;whiteSpace=wrap;connectable=0;overflow=hidden;fillColor=none;top=0;left=0;bottom=0;right=0;pointerEvents=1;fontColor=#000000;align=left;" parent="12" vertex="1">
                    <mxGeometry width="180" height="29" as="geometry">
                        <mxRectangle width="180" height="29" as="alternateBounds"/>
                    </mxGeometry>
                </mxCell>
                <mxCell id="6" value="" style="shape=tableRow;horizontal=0;startSize=0;swimlaneHead=0;swimlaneBody=0;top=0;left=0;bottom=0;right=0;collapsible=0;dropTarget=0;fillColor=none;points=[[0,0.5],[1,0.5]];portConstraint=eastwest;fontColor=#000000;align=left;" parent="3" vertex="1">
                    <mxGeometry y="116" width="180" height="29" as="geometry"/>
                </mxCell>
                <mxCell id="7" value="recept_foto&lt;span style=&quot;white-space: pre;&quot;&gt;&#9;&lt;/span&gt;?????????????????" style="shape=partialRectangle;html=1;whiteSpace=wrap;connectable=0;overflow=hidden;fillColor=none;top=0;left=0;bottom=0;right=0;pointerEvents=1;fontColor=#000000;align=left;" parent="6" vertex="1">
                    <mxGeometry width="180" height="29" as="geometry">
                        <mxRectangle width="180" height="29" as="alternateBounds"/>
                    </mxGeometry>
                </mxCell>
                <mxCell id="8" value="" style="shape=tableRow;horizontal=0;startSize=0;swimlaneHead=0;swimlaneBody=0;top=0;left=0;bottom=0;right=0;collapsible=0;dropTarget=0;fillColor=none;points=[[0,0.5],[1,0.5]];portConstraint=eastwest;fontColor=#000000;align=left;" parent="3" vertex="1">
                    <mxGeometry y="145" width="180" height="29" as="geometry"/>
                </mxCell>
                <mxCell id="9" value="type-" style="shape=partialRectangle;html=1;whiteSpace=wrap;connectable=0;overflow=hidden;fillColor=none;top=0;left=0;bottom=0;right=0;pointerEvents=1;fontColor=#000000;align=left;" parent="8" vertex="1">
                    <mxGeometry width="180" height="29" as="geometry">
                        <mxRectangle width="180" height="29" as="alternateBounds"/>
                    </mxGeometry>
                </mxCell>
                <mxCell id="10" style="shape=tableRow;horizontal=0;startSize=0;swimlaneHead=0;swimlaneBody=0;top=0;left=0;bottom=0;right=0;collapsible=0;dropTarget=0;fillColor=none;points=[[0,0.5],[1,0.5]];portConstraint=eastwest;fontColor=#000000;align=left;" parent="3" vertex="1">
                    <mxGeometry y="174" width="180" height="29" as="geometry"/>
                </mxCell>
                <mxCell id="11" value="keuken-" style="shape=partialRectangle;html=1;whiteSpace=wrap;connectable=0;overflow=hidden;fillColor=none;top=0;left=0;bottom=0;right=0;pointerEvents=1;fontColor=#000000;align=left;" parent="10" vertex="1">
                    <mxGeometry width="180" height="29" as="geometry">
                        <mxRectangle width="180" height="29" as="alternateBounds"/>
                    </mxGeometry>
                </mxCell>
                <mxCell id="14" style="shape=tableRow;horizontal=0;startSize=0;swimlaneHead=0;swimlaneBody=0;top=0;left=0;bottom=0;right=0;collapsible=0;dropTarget=0;fillColor=none;points=[[0,0.5],[1,0.5]];portConstraint=eastwest;fontColor=#000000;align=left;" parent="3" vertex="1">
                    <mxGeometry y="203" width="180" height="28" as="geometry"/>
                </mxCell>
                <mxCell id="15" value="sterren-" style="shape=partialRectangle;html=1;whiteSpace=wrap;connectable=0;overflow=hidden;fillColor=none;top=0;left=0;bottom=0;right=0;pointerEvents=1;fontColor=#000000;align=left;" parent="14" vertex="1">
                    <mxGeometry width="180" height="28" as="geometry">
                        <mxRectangle width="180" height="28" as="alternateBounds"/>
                    </mxGeometry>
                </mxCell>
                <mxCell id="16" style="shape=tableRow;horizontal=0;startSize=0;swimlaneHead=0;swimlaneBody=0;top=0;left=0;bottom=0;right=0;collapsible=0;dropTarget=0;fillColor=none;points=[[0,0.5],[1,0.5]];portConstraint=eastwest;fontColor=#000000;align=left;" parent="3" vertex="1">
                    <mxGeometry y="231" width="180" height="29" as="geometry"/>
                </mxCell>
                <mxCell id="17" value="omschrijving" style="shape=partialRectangle;html=1;whiteSpace=wrap;connectable=0;overflow=hidden;fillColor=none;top=0;left=0;bottom=0;right=0;pointerEvents=1;fontColor=#000000;align=left;" parent="16" vertex="1">
                    <mxGeometry width="180" height="29" as="geometry">
                        <mxRectangle width="180" height="29" as="alternateBounds"/>
                    </mxGeometry>
                </mxCell>
                <mxCell id="27" style="shape=tableRow;horizontal=0;startSize=0;swimlaneHead=0;swimlaneBody=0;top=0;left=0;bottom=0;right=0;collapsible=0;dropTarget=0;fillColor=none;points=[[0,0.5],[1,0.5]];portConstraint=eastwest;fontColor=#000000;align=left;" parent="3" vertex="1">
                    <mxGeometry y="260" width="180" height="29" as="geometry"/>
                </mxCell>
                <mxCell id="28" value="bereiding-" style="shape=partialRectangle;html=1;whiteSpace=wrap;connectable=0;overflow=hidden;fillColor=none;top=0;left=0;bottom=0;right=0;pointerEvents=1;fontColor=#000000;align=left;" parent="27" vertex="1">
                    <mxGeometry width="180" height="29" as="geometry">
                        <mxRectangle width="180" height="29" as="alternateBounds"/>
                    </mxGeometry>
                </mxCell>
                <mxCell id="20" style="shape=tableRow;horizontal=0;startSize=0;swimlaneHead=0;swimlaneBody=0;top=0;left=0;bottom=0;right=0;collapsible=0;dropTarget=0;fillColor=none;points=[[0,0.5],[1,0.5]];portConstraint=eastwest;fontColor=#000000;align=left;" parent="3" vertex="1">
                    <mxGeometry y="289" width="180" height="29" as="geometry"/>
                </mxCell>
                <mxCell id="21" value="datum_toegevoegd" style="shape=partialRectangle;html=1;whiteSpace=wrap;connectable=0;overflow=hidden;fillColor=none;top=0;left=0;bottom=0;right=0;pointerEvents=1;fontColor=#000000;align=left;" parent="20" vertex="1">
                    <mxGeometry width="180" height="29" as="geometry">
                        <mxRectangle width="180" height="29" as="alternateBounds"/>
                    </mxGeometry>
                </mxCell>
                <mxCell id="209" style="shape=tableRow;horizontal=0;startSize=0;swimlaneHead=0;swimlaneBody=0;top=0;left=0;bottom=0;right=0;collapsible=0;dropTarget=0;fillColor=none;points=[[0,0.5],[1,0.5]];portConstraint=eastwest;fontColor=#000000;align=left;" parent="3" vertex="1">
                    <mxGeometry y="318" width="180" height="29" as="geometry"/>
                </mxCell>
                <mxCell id="210" value="aantalpersonen" style="shape=partialRectangle;html=1;whiteSpace=wrap;connectable=0;overflow=hidden;fillColor=none;top=0;left=0;bottom=0;right=0;pointerEvents=1;fontColor=#000000;align=left;" parent="209" vertex="1">
                    <mxGeometry width="180" height="29" as="geometry">
                        <mxRectangle width="180" height="29" as="alternateBounds"/>
                    </mxGeometry>
                </mxCell>
                <mxCell id="48" value="" style="shape=table;startSize=0;container=1;collapsible=0;childLayout=tableLayout;fillColor=#f5f5f5;fontColor=#000000;strokeColor=#666666;align=left;" parent="1" vertex="1">
                    <mxGeometry x="650" y="580" width="180" height="145" as="geometry"/>
                </mxCell>
                <mxCell id="37" style="shape=tableRow;horizontal=0;startSize=0;swimlaneHead=0;swimlaneBody=0;top=0;left=0;bottom=0;right=0;collapsible=0;dropTarget=0;fillColor=none;points=[[0,0.5],[1,0.5]];portConstraint=eastwest;fontColor=#000000;align=left;" parent="48" vertex="1">
                    <mxGeometry width="180" height="29" as="geometry"/>
                </mxCell>
                <mxCell id="38" value="bezoeker_opmerking" style="shape=partialRectangle;html=1;whiteSpace=wrap;connectable=0;overflow=hidden;fillColor=#60a917;top=0;left=0;bottom=0;right=0;pointerEvents=1;fontColor=#ffffff;align=left;strokeColor=#2D7600;" parent="37" vertex="1">
                    <mxGeometry width="180" height="29" as="geometry">
                        <mxRectangle width="180" height="29" as="alternateBounds"/>
                    </mxGeometry>
                </mxCell>
                <mxCell id="51" value="" style="shape=tableRow;horizontal=0;startSize=0;swimlaneHead=0;swimlaneBody=0;top=0;left=0;bottom=0;right=0;collapsible=0;dropTarget=0;fillColor=none;points=[[0,0.5],[1,0.5]];portConstraint=eastwest;fontColor=#000000;align=left;" parent="48" vertex="1">
                    <mxGeometry y="29" width="180" height="29" as="geometry"/>
                </mxCell>
                <mxCell id="52" value="&lt;b&gt;ID&lt;/b&gt;" style="shape=partialRectangle;html=1;whiteSpace=wrap;connectable=0;overflow=hidden;fillColor=none;top=0;left=0;bottom=0;right=0;pointerEvents=1;fontColor=#000000;align=left;" parent="51" vertex="1">
                    <mxGeometry width="180" height="29" as="geometry">
                        <mxRectangle width="180" height="29" as="alternateBounds"/>
                    </mxGeometry>
                </mxCell>
                <mxCell id="101" style="shape=tableRow;horizontal=0;startSize=0;swimlaneHead=0;swimlaneBody=0;top=0;left=0;bottom=0;right=0;collapsible=0;dropTarget=0;fillColor=none;points=[[0,0.5],[1,0.5]];portConstraint=eastwest;fontColor=#000000;align=left;" parent="48" vertex="1">
                    <mxGeometry y="58" width="180" height="29" as="geometry"/>
                </mxCell>
                <mxCell id="102" value="&lt;span style=&quot;font-weight: 700;&quot;&gt;recept_ID (pk)&lt;/span&gt;" style="shape=partialRectangle;html=1;whiteSpace=wrap;connectable=0;overflow=hidden;fillColor=none;top=0;left=0;bottom=0;right=0;pointerEvents=1;fontColor=#000000;align=left;" parent="101" vertex="1">
                    <mxGeometry width="180" height="29" as="geometry">
                        <mxRectangle width="180" height="29" as="alternateBounds"/>
                    </mxGeometry>
                </mxCell>
                <mxCell id="49" style="shape=tableRow;horizontal=0;startSize=0;swimlaneHead=0;swimlaneBody=0;top=0;left=0;bottom=0;right=0;collapsible=0;dropTarget=0;fillColor=none;points=[[0,0.5],[1,0.5]];portConstraint=eastwest;fontColor=#000000;align=left;" parent="48" vertex="1">
                    <mxGeometry y="87" width="180" height="29" as="geometry"/>
                </mxCell>
                <mxCell id="50" value="&lt;b style=&quot;color: rgb(51, 51, 51);&quot;&gt;gebruiker_ID&lt;/b&gt;" style="shape=partialRectangle;html=1;whiteSpace=wrap;connectable=0;overflow=hidden;fillColor=none;top=0;left=0;bottom=0;right=0;pointerEvents=1;fontColor=#000000;align=left;" parent="49" vertex="1">
                    <mxGeometry width="180" height="29" as="geometry">
                        <mxRectangle width="180" height="29" as="alternateBounds"/>
                    </mxGeometry>
                </mxCell>
                <mxCell id="24" style="shape=tableRow;horizontal=0;startSize=0;swimlaneHead=0;swimlaneBody=0;top=0;left=0;bottom=0;right=0;collapsible=0;dropTarget=0;fillColor=none;points=[[0,0.5],[1,0.5]];portConstraint=eastwest;fontColor=#000000;align=left;" parent="48" vertex="1">
                    <mxGeometry y="116" width="180" height="29" as="geometry"/>
                </mxCell>
                <mxCell id="25" value="opmerking" style="shape=partialRectangle;html=1;whiteSpace=wrap;connectable=0;overflow=hidden;fillColor=none;top=0;left=0;bottom=0;right=0;pointerEvents=1;fontColor=#000000;align=left;" parent="24" vertex="1">
                    <mxGeometry width="180" height="29" as="geometry">
                        <mxRectangle width="180" height="29" as="alternateBounds"/>
                    </mxGeometry>
                </mxCell>
                <mxCell id="57" value="" style="shape=table;startSize=0;container=1;collapsible=0;childLayout=tableLayout;fillColor=#f5f5f5;fontColor=#000000;strokeColor=#666666;align=left;" parent="1" vertex="1">
                    <mxGeometry x="410" y="181" width="180" height="178" as="geometry"/>
                </mxCell>
                <mxCell id="58" style="shape=tableRow;horizontal=0;startSize=0;swimlaneHead=0;swimlaneBody=0;top=0;left=0;bottom=0;right=0;collapsible=0;dropTarget=0;fillColor=none;points=[[0,0.5],[1,0.5]];portConstraint=eastwest;fontColor=#000000;align=left;" parent="57" vertex="1">
                    <mxGeometry width="180" height="29" as="geometry"/>
                </mxCell>
                <mxCell id="59" value="ingredient" style="shape=partialRectangle;html=1;whiteSpace=wrap;connectable=0;overflow=hidden;fillColor=#60a917;top=0;left=0;bottom=0;right=0;pointerEvents=1;fontColor=#ffffff;align=left;strokeColor=#2D7600;" parent="58" vertex="1">
                    <mxGeometry width="180" height="29" as="geometry">
                        <mxRectangle width="180" height="29" as="alternateBounds"/>
                    </mxGeometry>
                </mxCell>
                <mxCell id="201" style="shape=tableRow;horizontal=0;startSize=0;swimlaneHead=0;swimlaneBody=0;top=0;left=0;bottom=0;right=0;collapsible=0;dropTarget=0;fillColor=none;points=[[0,0.5],[1,0.5]];portConstraint=eastwest;fontColor=#000000;align=left;" parent="57" vertex="1">
                    <mxGeometry y="29" width="180" height="31" as="geometry"/>
                </mxCell>
                <mxCell id="202" value="ID" style="shape=partialRectangle;html=1;whiteSpace=wrap;connectable=0;overflow=hidden;fillColor=none;top=0;left=0;bottom=0;right=0;pointerEvents=1;fontColor=#000000;align=left;fontStyle=1" parent="201" vertex="1">
                    <mxGeometry width="180" height="31" as="geometry">
                        <mxRectangle width="180" height="31" as="alternateBounds"/>
                    </mxGeometry>
                </mxCell>
                <mxCell id="4" value="" style="shape=tableRow;horizontal=0;startSize=0;swimlaneHead=0;swimlaneBody=0;top=0;left=0;bottom=0;right=0;collapsible=0;dropTarget=0;fillColor=none;points=[[0,0.5],[1,0.5]];portConstraint=eastwest;fontColor=#000000;align=left;" parent="57" vertex="1">
                    <mxGeometry y="60" width="180" height="31" as="geometry"/>
                </mxCell>
                <mxCell id="5" value="recept_ID (fk)&lt;span style=&quot;white-space: pre;&quot;&gt;&#9;&lt;/span&gt;" style="shape=partialRectangle;html=1;whiteSpace=wrap;connectable=0;overflow=hidden;fillColor=none;top=0;left=0;bottom=0;right=0;pointerEvents=1;fontColor=#000000;align=left;fontStyle=1" parent="4" vertex="1">
                    <mxGeometry width="180" height="31" as="geometry">
                        <mxRectangle width="180" height="31" as="alternateBounds"/>
                    </mxGeometry>
                </mxCell>
                <mxCell id="72" style="shape=tableRow;horizontal=0;startSize=0;swimlaneHead=0;swimlaneBody=0;top=0;left=0;bottom=0;right=0;collapsible=0;dropTarget=0;fillColor=none;points=[[0,0.5],[1,0.5]];portConstraint=eastwest;fontColor=#000000;align=left;" parent="57" vertex="1">
                    <mxGeometry y="91" width="180" height="29" as="geometry"/>
                </mxCell>
                <mxCell id="73" value="&lt;b&gt;(&amp;gt;) product_ID&lt;/b&gt;" style="shape=partialRectangle;html=1;whiteSpace=wrap;connectable=0;overflow=hidden;fillColor=none;top=0;left=0;bottom=0;right=0;pointerEvents=1;fontColor=#000000;align=left;" parent="72" vertex="1">
                    <mxGeometry width="180" height="29" as="geometry">
                        <mxRectangle width="180" height="29" as="alternateBounds"/>
                    </mxGeometry>
                </mxCell>
                <mxCell id="66" value="" style="shape=tableRow;horizontal=0;startSize=0;swimlaneHead=0;swimlaneBody=0;top=0;left=0;bottom=0;right=0;collapsible=0;dropTarget=0;fillColor=none;points=[[0,0.5],[1,0.5]];portConstraint=eastwest;fontColor=#000000;align=left;" parent="57" vertex="1">
                    <mxGeometry y="120" width="180" height="29" as="geometry"/>
                </mxCell>
                <mxCell id="67" value="Hoeveelheid" style="shape=partialRectangle;html=1;whiteSpace=wrap;connectable=0;overflow=hidden;fillColor=none;top=0;left=0;bottom=0;right=0;pointerEvents=1;fontColor=#000000;align=left;" parent="66" vertex="1">
                    <mxGeometry width="180" height="29" as="geometry">
                        <mxRectangle width="180" height="29" as="alternateBounds"/>
                    </mxGeometry>
                </mxCell>
                <mxCell id="225" style="shape=tableRow;horizontal=0;startSize=0;swimlaneHead=0;swimlaneBody=0;top=0;left=0;bottom=0;right=0;collapsible=0;dropTarget=0;fillColor=none;points=[[0,0.5],[1,0.5]];portConstraint=eastwest;fontColor=#000000;align=left;" parent="57" vertex="1">
                    <mxGeometry y="149" width="180" height="29" as="geometry"/>
                </mxCell>
                <mxCell id="226" value="aantal" style="shape=partialRectangle;html=1;whiteSpace=wrap;connectable=0;overflow=hidden;fillColor=none;top=0;left=0;bottom=0;right=0;pointerEvents=1;fontColor=#000000;align=left;" parent="225" vertex="1">
                    <mxGeometry width="180" height="29" as="geometry">
                        <mxRectangle width="180" height="29" as="alternateBounds"/>
                    </mxGeometry>
                </mxCell>
                <mxCell id="83" value="" style="shape=table;startSize=0;container=1;collapsible=0;childLayout=tableLayout;fillColor=#f5f5f5;fontColor=#000000;strokeColor=#666666;align=left;" parent="1" vertex="1">
                    <mxGeometry x="660" y="110" width="180" height="232" as="geometry"/>
                </mxCell>
                <mxCell id="84" style="shape=tableRow;horizontal=0;startSize=0;swimlaneHead=0;swimlaneBody=0;top=0;left=0;bottom=0;right=0;collapsible=0;dropTarget=0;fillColor=none;points=[[0,0.5],[1,0.5]];portConstraint=eastwest;fontColor=#000000;align=left;" parent="83" vertex="1">
                    <mxGeometry width="180" height="29" as="geometry"/>
                </mxCell>
                <mxCell id="85" value="Product" style="shape=partialRectangle;html=1;whiteSpace=wrap;connectable=0;overflow=hidden;fillColor=#0050ef;top=0;left=0;bottom=0;right=0;pointerEvents=1;fontColor=#ffffff;align=left;strokeColor=#001DBC;" parent="84" vertex="1">
                    <mxGeometry width="180" height="29" as="geometry">
                        <mxRectangle width="180" height="29" as="alternateBounds"/>
                    </mxGeometry>
                </mxCell>
                <mxCell id="92" value="" style="shape=tableRow;horizontal=0;startSize=0;swimlaneHead=0;swimlaneBody=0;top=0;left=0;bottom=0;right=0;collapsible=0;dropTarget=0;fillColor=none;points=[[0,0.5],[1,0.5]];portConstraint=eastwest;fontColor=#000000;align=left;" parent="83" vertex="1">
                    <mxGeometry y="29" width="180" height="29" as="geometry"/>
                </mxCell>
                <mxCell id="93" value="&lt;b&gt;ID&lt;/b&gt;" style="shape=partialRectangle;html=1;whiteSpace=wrap;connectable=0;overflow=hidden;fillColor=none;top=0;left=0;bottom=0;right=0;pointerEvents=1;fontColor=#000000;align=left;" parent="92" vertex="1">
                    <mxGeometry width="180" height="29" as="geometry">
                        <mxRectangle width="180" height="29" as="alternateBounds"/>
                    </mxGeometry>
                </mxCell>
                <mxCell id="81" style="shape=tableRow;horizontal=0;startSize=0;swimlaneHead=0;swimlaneBody=0;top=0;left=0;bottom=0;right=0;collapsible=0;dropTarget=0;fillColor=none;points=[[0,0.5],[1,0.5]];portConstraint=eastwest;fontColor=#000000;align=left;" parent="83" vertex="1">
                    <mxGeometry y="58" width="180" height="29" as="geometry"/>
                </mxCell>
                <mxCell id="82" value="&lt;b&gt;(&amp;gt;)&amp;nbsp;&lt;/b&gt;product_naam" style="shape=partialRectangle;html=1;whiteSpace=wrap;connectable=0;overflow=hidden;fillColor=none;top=0;left=0;bottom=0;right=0;pointerEvents=1;fontColor=#000000;align=left;" parent="81" vertex="1">
                    <mxGeometry width="180" height="29" as="geometry">
                        <mxRectangle width="180" height="29" as="alternateBounds"/>
                    </mxGeometry>
                </mxCell>
                <mxCell id="62" style="shape=tableRow;horizontal=0;startSize=0;swimlaneHead=0;swimlaneBody=0;top=0;left=0;bottom=0;right=0;collapsible=0;dropTarget=0;fillColor=none;points=[[0,0.5],[1,0.5]];portConstraint=eastwest;fontColor=#000000;align=left;" parent="83" vertex="1">
                    <mxGeometry y="87" width="180" height="29" as="geometry"/>
                </mxCell>
                <mxCell id="63" value="&lt;b&gt;(&amp;gt;)&amp;nbsp;&lt;/b&gt;product_prijs" style="shape=partialRectangle;html=1;whiteSpace=wrap;connectable=0;overflow=hidden;fillColor=none;top=0;left=0;bottom=0;right=0;pointerEvents=1;fontColor=#000000;align=left;" parent="62" vertex="1">
                    <mxGeometry width="180" height="29" as="geometry">
                        <mxRectangle width="180" height="29" as="alternateBounds"/>
                    </mxGeometry>
                </mxCell>
                <mxCell id="64" style="shape=tableRow;horizontal=0;startSize=0;swimlaneHead=0;swimlaneBody=0;top=0;left=0;bottom=0;right=0;collapsible=0;dropTarget=0;fillColor=none;points=[[0,0.5],[1,0.5]];portConstraint=eastwest;fontColor=#000000;align=left;" parent="83" vertex="1">
                    <mxGeometry y="116" width="180" height="29" as="geometry"/>
                </mxCell>
                <mxCell id="65" value="&lt;b&gt;(&amp;gt;)&amp;nbsp;&lt;/b&gt;product_calorien" style="shape=partialRectangle;html=1;whiteSpace=wrap;connectable=0;overflow=hidden;fillColor=none;top=0;left=0;bottom=0;right=0;pointerEvents=1;fontColor=#000000;align=left;" parent="64" vertex="1">
                    <mxGeometry width="180" height="29" as="geometry">
                        <mxRectangle width="180" height="29" as="alternateBounds"/>
                    </mxGeometry>
                </mxCell>
                <mxCell id="235" style="shape=tableRow;horizontal=0;startSize=0;swimlaneHead=0;swimlaneBody=0;top=0;left=0;bottom=0;right=0;collapsible=0;dropTarget=0;fillColor=none;points=[[0,0.5],[1,0.5]];portConstraint=eastwest;fontColor=#000000;align=left;" parent="83" vertex="1">
                    <mxGeometry y="145" width="180" height="29" as="geometry"/>
                </mxCell>
                <mxCell id="236" value="beschrijving" style="shape=partialRectangle;html=1;whiteSpace=wrap;connectable=0;overflow=hidden;fillColor=none;top=0;left=0;bottom=0;right=0;pointerEvents=1;fontColor=#000000;align=left;" parent="235" vertex="1">
                    <mxGeometry width="180" height="29" as="geometry">
                        <mxRectangle width="180" height="29" as="alternateBounds"/>
                    </mxGeometry>
                </mxCell>
                <mxCell id="238" style="shape=tableRow;horizontal=0;startSize=0;swimlaneHead=0;swimlaneBody=0;top=0;left=0;bottom=0;right=0;collapsible=0;dropTarget=0;fillColor=none;points=[[0,0.5],[1,0.5]];portConstraint=eastwest;fontColor=#000000;align=left;" vertex="1" parent="83">
                    <mxGeometry y="174" width="180" height="29" as="geometry"/>
                </mxCell>
                <mxCell id="239" value="kwantiteit" style="shape=partialRectangle;html=1;whiteSpace=wrap;connectable=0;overflow=hidden;fillColor=none;top=0;left=0;bottom=0;right=0;pointerEvents=1;fontColor=#000000;align=left;" vertex="1" parent="238">
                    <mxGeometry width="180" height="29" as="geometry">
                        <mxRectangle width="180" height="29" as="alternateBounds"/>
                    </mxGeometry>
                </mxCell>
                <mxCell id="240" style="shape=tableRow;horizontal=0;startSize=0;swimlaneHead=0;swimlaneBody=0;top=0;left=0;bottom=0;right=0;collapsible=0;dropTarget=0;fillColor=none;points=[[0,0.5],[1,0.5]];portConstraint=eastwest;fontColor=#000000;align=left;" vertex="1" parent="83">
                    <mxGeometry y="203" width="180" height="29" as="geometry"/>
                </mxCell>
                <mxCell id="241" value="kwantiteit_specificatie" style="shape=partialRectangle;html=1;whiteSpace=wrap;connectable=0;overflow=hidden;fillColor=none;top=0;left=0;bottom=0;right=0;pointerEvents=1;fontColor=#000000;align=left;" vertex="1" parent="240">
                    <mxGeometry width="180" height="29" as="geometry">
                        <mxRectangle width="180" height="29" as="alternateBounds"/>
                    </mxGeometry>
                </mxCell>
                <mxCell id="103" value="" style="shape=table;startSize=0;container=1;collapsible=0;childLayout=tableLayout;fillColor=#f5f5f5;fontColor=#000000;strokeColor=#666666;align=left;" parent="1" vertex="1">
                    <mxGeometry x="390" y="405" width="180" height="203" as="geometry"/>
                </mxCell>
                <mxCell id="104" style="shape=tableRow;horizontal=0;startSize=0;swimlaneHead=0;swimlaneBody=0;top=0;left=0;bottom=0;right=0;collapsible=0;dropTarget=0;fillColor=none;points=[[0,0.5],[1,0.5]];portConstraint=eastwest;fontColor=#000000;align=left;" parent="103" vertex="1">
                    <mxGeometry width="180" height="29" as="geometry"/>
                </mxCell>
                <mxCell id="105" value="gebruiker" style="shape=partialRectangle;html=1;whiteSpace=wrap;connectable=0;overflow=hidden;fillColor=#0050ef;top=0;left=0;bottom=0;right=0;pointerEvents=1;fontColor=#ffffff;align=left;strokeColor=#001DBC;" parent="104" vertex="1">
                    <mxGeometry width="180" height="29" as="geometry">
                        <mxRectangle width="180" height="29" as="alternateBounds"/>
                    </mxGeometry>
                </mxCell>
                <mxCell id="189" style="shape=tableRow;horizontal=0;startSize=0;swimlaneHead=0;swimlaneBody=0;top=0;left=0;bottom=0;right=0;collapsible=0;dropTarget=0;fillColor=none;points=[[0,0.5],[1,0.5]];portConstraint=eastwest;fontColor=#000000;align=left;" parent="103" vertex="1">
                    <mxGeometry y="29" width="180" height="29" as="geometry"/>
                </mxCell>
                <mxCell id="190" value="&lt;b&gt;ID&lt;/b&gt;" style="shape=partialRectangle;html=1;whiteSpace=wrap;connectable=0;overflow=hidden;fillColor=#f5f5f5;top=0;left=0;bottom=0;right=0;pointerEvents=1;fontColor=#333333;align=left;strokeColor=#666666;" parent="189" vertex="1">
                    <mxGeometry width="180" height="29" as="geometry">
                        <mxRectangle width="180" height="29" as="alternateBounds"/>
                    </mxGeometry>
                </mxCell>
                <mxCell id="108" style="shape=tableRow;horizontal=0;startSize=0;swimlaneHead=0;swimlaneBody=0;top=0;left=0;bottom=0;right=0;collapsible=0;dropTarget=0;fillColor=none;points=[[0,0.5],[1,0.5]];portConstraint=eastwest;fontColor=#000000;align=left;" parent="103" vertex="1">
                    <mxGeometry y="58" width="180" height="29" as="geometry"/>
                </mxCell>
                <mxCell id="109" value="gebruiker_naam" style="shape=partialRectangle;html=1;whiteSpace=wrap;connectable=0;overflow=hidden;fillColor=none;top=0;left=0;bottom=0;right=0;pointerEvents=1;fontColor=#000000;align=left;" parent="108" vertex="1">
                    <mxGeometry width="180" height="29" as="geometry">
                        <mxRectangle width="180" height="29" as="alternateBounds"/>
                    </mxGeometry>
                </mxCell>
                <mxCell id="215" style="shape=tableRow;horizontal=0;startSize=0;swimlaneHead=0;swimlaneBody=0;top=0;left=0;bottom=0;right=0;collapsible=0;dropTarget=0;fillColor=none;points=[[0,0.5],[1,0.5]];portConstraint=eastwest;fontColor=#000000;align=left;" parent="103" vertex="1">
                    <mxGeometry y="87" width="180" height="29" as="geometry"/>
                </mxCell>
                <mxCell id="216" value="foto" style="shape=partialRectangle;html=1;whiteSpace=wrap;connectable=0;overflow=hidden;fillColor=none;top=0;left=0;bottom=0;right=0;pointerEvents=1;fontColor=#000000;align=left;" parent="215" vertex="1">
                    <mxGeometry width="180" height="29" as="geometry">
                        <mxRectangle width="180" height="29" as="alternateBounds"/>
                    </mxGeometry>
                </mxCell>
                <mxCell id="110" style="shape=tableRow;horizontal=0;startSize=0;swimlaneHead=0;swimlaneBody=0;top=0;left=0;bottom=0;right=0;collapsible=0;dropTarget=0;fillColor=none;points=[[0,0.5],[1,0.5]];portConstraint=eastwest;fontColor=#000000;align=left;" parent="103" vertex="1">
                    <mxGeometry y="116" width="180" height="29" as="geometry"/>
                </mxCell>
                <mxCell id="111" value="email" style="shape=partialRectangle;html=1;whiteSpace=wrap;connectable=0;overflow=hidden;fillColor=none;top=0;left=0;bottom=0;right=0;pointerEvents=1;fontColor=#000000;align=left;" parent="110" vertex="1">
                    <mxGeometry width="180" height="29" as="geometry">
                        <mxRectangle width="180" height="29" as="alternateBounds"/>
                    </mxGeometry>
                </mxCell>
                <mxCell id="112" style="shape=tableRow;horizontal=0;startSize=0;swimlaneHead=0;swimlaneBody=0;top=0;left=0;bottom=0;right=0;collapsible=0;dropTarget=0;fillColor=none;points=[[0,0.5],[1,0.5]];portConstraint=eastwest;fontColor=#000000;align=left;" parent="103" vertex="1">
                    <mxGeometry y="145" width="180" height="29" as="geometry"/>
                </mxCell>
                <mxCell id="113" value="wachtwoord" style="shape=partialRectangle;html=1;whiteSpace=wrap;connectable=0;overflow=hidden;fillColor=none;top=0;left=0;bottom=0;right=0;pointerEvents=1;fontColor=#000000;align=left;" parent="112" vertex="1">
                    <mxGeometry width="180" height="29" as="geometry">
                        <mxRectangle width="180" height="29" as="alternateBounds"/>
                    </mxGeometry>
                </mxCell>
                <mxCell id="219" style="shape=tableRow;horizontal=0;startSize=0;swimlaneHead=0;swimlaneBody=0;top=0;left=0;bottom=0;right=0;collapsible=0;dropTarget=0;fillColor=none;points=[[0,0.5],[1,0.5]];portConstraint=eastwest;fontColor=#000000;align=left;" parent="103" vertex="1">
                    <mxGeometry y="174" width="180" height="29" as="geometry"/>
                </mxCell>
                <mxCell id="220" value="" style="shape=partialRectangle;html=1;whiteSpace=wrap;connectable=0;overflow=hidden;fillColor=none;top=0;left=0;bottom=0;right=0;pointerEvents=1;fontColor=#000000;align=left;" parent="219" vertex="1">
                    <mxGeometry width="180" height="29" as="geometry">
                        <mxRectangle width="180" height="29" as="alternateBounds"/>
                    </mxGeometry>
                </mxCell>
                <mxCell id="194" style="edgeStyle=none;html=1;exitX=1;exitY=0.5;exitDx=0;exitDy=0;endArrow=ERmany;endFill=0;endSize=15;strokeColor=#FFFF33;shadow=0;" parent="1" source="104" target="162" edge="1">
                    <mxGeometry relative="1" as="geometry">
                        <mxPoint x="1110" y="500" as="targetPoint"/>
                    </mxGeometry>
                </mxCell>
                <mxCell id="230" style="edgeStyle=orthogonalEdgeStyle;html=1;entryX=0.75;entryY=0;entryDx=0;entryDy=0;shadow=0;strokeColor=#FFFF33;fontColor=#000000;endArrow=ERmany;endFill=0;endSize=15;" parent="1" target="3" edge="1" source="162">
                    <mxGeometry relative="1" as="geometry">
                        <mxPoint x="730" y="410" as="sourcePoint"/>
                        <Array as="points">
                            <mxPoint x="730" y="380"/>
                            <mxPoint x="275" y="380"/>
                        </Array>
                    </mxGeometry>
                </mxCell>
                <mxCell id="263" style="edgeStyle=none;html=1;exitX=0.75;exitY=0;exitDx=0;exitDy=0;strokeColor=#FFFF00;endArrow=ERmany;endFill=0;endSize=15;" edge="1" parent="1" source="161" target="240">
                    <mxGeometry relative="1" as="geometry"/>
                </mxCell>
                <mxCell id="161" value="" style="shape=table;startSize=0;container=1;collapsible=0;childLayout=tableLayout;fillColor=#f5f5f5;fontColor=#000000;strokeColor=#666666;align=left;" parent="1" vertex="1">
                    <mxGeometry x="630" y="420" width="180" height="145" as="geometry"/>
                </mxCell>
                <mxCell id="162" style="shape=tableRow;horizontal=0;startSize=0;swimlaneHead=0;swimlaneBody=0;top=0;left=0;bottom=0;right=0;collapsible=0;dropTarget=0;fillColor=none;points=[[0,0.5],[1,0.5]];portConstraint=eastwest;fontColor=#000000;align=left;" parent="161" vertex="1">
                    <mxGeometry width="180" height="29" as="geometry"/>
                </mxCell>
                <mxCell id="163" value="boodschap" style="shape=partialRectangle;html=1;whiteSpace=wrap;connectable=0;overflow=hidden;fillColor=#0050ef;top=0;left=0;bottom=0;right=0;pointerEvents=1;fontColor=#ffffff;align=left;strokeColor=#001DBC;" parent="162" vertex="1">
                    <mxGeometry width="180" height="29" as="geometry">
                        <mxRectangle width="180" height="29" as="alternateBounds"/>
                    </mxGeometry>
                </mxCell>
                <mxCell id="168" style="shape=tableRow;horizontal=0;startSize=0;swimlaneHead=0;swimlaneBody=0;top=0;left=0;bottom=0;right=0;collapsible=0;dropTarget=0;fillColor=none;points=[[0,0.5],[1,0.5]];portConstraint=eastwest;fontColor=#000000;align=left;" parent="161" vertex="1">
                    <mxGeometry y="29" width="180" height="29" as="geometry"/>
                </mxCell>
                <mxCell id="169" value="&lt;b&gt;ID&lt;/b&gt;" style="shape=partialRectangle;html=1;whiteSpace=wrap;connectable=0;overflow=hidden;fillColor=none;top=0;left=0;bottom=0;right=0;pointerEvents=1;fontColor=#000000;align=left;" parent="168" vertex="1">
                    <mxGeometry width="180" height="29" as="geometry">
                        <mxRectangle width="180" height="29" as="alternateBounds"/>
                    </mxGeometry>
                </mxCell>
                <mxCell id="164" value="" style="shape=tableRow;horizontal=0;startSize=0;swimlaneHead=0;swimlaneBody=0;top=0;left=0;bottom=0;right=0;collapsible=0;dropTarget=0;fillColor=none;points=[[0,0.5],[1,0.5]];portConstraint=eastwest;fontColor=#000000;align=left;" parent="161" vertex="1">
                    <mxGeometry y="58" width="180" height="29" as="geometry"/>
                </mxCell>
                <mxCell id="165" value="&lt;b&gt;product_ID&lt;/b&gt;" style="shape=partialRectangle;html=1;whiteSpace=wrap;connectable=0;overflow=hidden;fillColor=none;top=0;left=0;bottom=0;right=0;pointerEvents=1;fontColor=#000000;align=left;" parent="164" vertex="1">
                    <mxGeometry width="180" height="29" as="geometry">
                        <mxRectangle width="180" height="29" as="alternateBounds"/>
                    </mxGeometry>
                </mxCell>
                <mxCell id="166" style="shape=tableRow;horizontal=0;startSize=0;swimlaneHead=0;swimlaneBody=0;top=0;left=0;bottom=0;right=0;collapsible=0;dropTarget=0;fillColor=none;points=[[0,0.5],[1,0.5]];portConstraint=eastwest;fontColor=#000000;align=left;" parent="161" vertex="1">
                    <mxGeometry y="87" width="180" height="29" as="geometry"/>
                </mxCell>
                <mxCell id="167" value="aantal" style="shape=partialRectangle;html=1;whiteSpace=wrap;connectable=0;overflow=hidden;fillColor=none;top=0;left=0;bottom=0;right=0;pointerEvents=1;fontColor=#000000;align=left;" parent="166" vertex="1">
                    <mxGeometry width="180" height="29" as="geometry">
                        <mxRectangle width="180" height="29" as="alternateBounds"/>
                    </mxGeometry>
                </mxCell>
                <mxCell id="170" style="shape=tableRow;horizontal=0;startSize=0;swimlaneHead=0;swimlaneBody=0;top=0;left=0;bottom=0;right=0;collapsible=0;dropTarget=0;fillColor=none;points=[[0,0.5],[1,0.5]];portConstraint=eastwest;fontColor=#000000;align=left;" parent="161" vertex="1">
                    <mxGeometry y="116" width="180" height="29" as="geometry"/>
                </mxCell>
                <mxCell id="171" value="" style="shape=partialRectangle;html=1;whiteSpace=wrap;connectable=0;overflow=hidden;fillColor=none;top=0;left=0;bottom=0;right=0;pointerEvents=1;fontColor=#000000;align=left;" parent="170" vertex="1">
                    <mxGeometry width="180" height="29" as="geometry">
                        <mxRectangle width="180" height="29" as="alternateBounds"/>
                    </mxGeometry>
                </mxCell>
                <mxCell id="204" style="edgeStyle=orthogonalEdgeStyle;html=1;exitX=0.478;exitY=0.004;exitDx=0;exitDy=0;shadow=0;strokeColor=#FFFF33;fontColor=#000000;endArrow=ERmany;endFill=0;endSize=15;entryX=0;entryY=0.5;entryDx=0;entryDy=0;exitPerimeter=0;" parent="1" source="44" target="201" edge="1">
                    <mxGeometry relative="1" as="geometry">
                        <mxPoint x="410" y="104" as="targetPoint"/>
                        <Array as="points">
                            <mxPoint x="226" y="310"/>
                            <mxPoint x="330" y="310"/>
                            <mxPoint x="330" y="226"/>
                        </Array>
                    </mxGeometry>
                </mxCell>
                <mxCell id="212" style="edgeStyle=orthogonalEdgeStyle;html=1;exitX=0;exitY=0.5;exitDx=0;exitDy=0;shadow=0;strokeColor=#FFFF33;fontColor=#000000;endArrow=ERmany;endFill=0;endSize=15;" parent="1" source="104" target="44" edge="1">
                    <mxGeometry relative="1" as="geometry"/>
                </mxCell>
                <mxCell id="214" style="edgeStyle=orthogonalEdgeStyle;html=1;exitX=0;exitY=0.5;exitDx=0;exitDy=0;entryX=1;entryY=0.5;entryDx=0;entryDy=0;shadow=0;strokeColor=#FFFF33;fontColor=#000000;endArrow=ERmany;endFill=0;endSize=15;" parent="1" source="92" target="72" edge="1">
                    <mxGeometry relative="1" as="geometry"/>
                </mxCell>
                <mxCell id="218" style="edgeStyle=orthogonalEdgeStyle;html=1;exitX=0.373;exitY=1.01;exitDx=0;exitDy=0;entryX=0;entryY=0.5;entryDx=0;entryDy=0;shadow=0;strokeColor=#FFFF33;fontColor=#000000;endArrow=ERmany;endFill=0;endSize=15;exitPerimeter=0;" parent="1" target="192" edge="1">
                    <mxGeometry relative="1" as="geometry"/>
                </mxCell>
                <mxCell id="221" style="edgeStyle=orthogonalEdgeStyle;html=1;entryX=0;entryY=0.5;entryDx=0;entryDy=0;shadow=0;strokeColor=#FFFF33;fontColor=#000000;endArrow=ERmany;endFill=0;endSize=15;" parent="1" source="209" target="37" edge="1">
                    <mxGeometry relative="1" as="geometry">
                        <Array as="points">
                            <mxPoint x="230" y="810"/>
                            <mxPoint x="610" y="810"/>
                            <mxPoint x="610" y="595"/>
                        </Array>
                        <mxPoint x="360" y="760" as="sourcePoint"/>
                    </mxGeometry>
                </mxCell>
                <mxCell id="237" style="edgeStyle=orthogonalEdgeStyle;html=1;exitX=1;exitY=0.5;exitDx=0;exitDy=0;shadow=0;strokeColor=#FFFF33;fontColor=#000000;endArrow=ERmany;endFill=0;endSize=15;" parent="1" source="112" target="37" edge="1">
                    <mxGeometry relative="1" as="geometry"/>
                </mxCell>
                <mxCell id="262" style="edgeStyle=none;html=1;exitX=0.5;exitY=0;exitDx=0;exitDy=0;endSize=15;strokeColor=#FFFF00;endArrow=ERmany;endFill=0;" edge="1" parent="1" source="250" target="219">
                    <mxGeometry relative="1" as="geometry"/>
                </mxCell>
                <mxCell id="250" value="" style="shape=table;startSize=0;container=1;collapsible=0;childLayout=tableLayout;fillColor=#f5f5f5;fontColor=#000000;strokeColor=#666666;align=left;" vertex="1" parent="1">
                    <mxGeometry x="390" y="640" width="180" height="145" as="geometry"/>
                </mxCell>
                <mxCell id="251" style="shape=tableRow;horizontal=0;startSize=0;swimlaneHead=0;swimlaneBody=0;top=0;left=0;bottom=0;right=0;collapsible=0;dropTarget=0;fillColor=none;points=[[0,0.5],[1,0.5]];portConstraint=eastwest;fontColor=#000000;align=left;" vertex="1" parent="250">
                    <mxGeometry width="180" height="29" as="geometry"/>
                </mxCell>
                <mxCell id="252" value="favoriet" style="shape=partialRectangle;html=1;whiteSpace=wrap;connectable=0;overflow=hidden;fillColor=#0050ef;top=0;left=0;bottom=0;right=0;pointerEvents=1;fontColor=#ffffff;align=left;strokeColor=#001DBC;" vertex="1" parent="251">
                    <mxGeometry width="180" height="29" as="geometry">
                        <mxRectangle width="180" height="29" as="alternateBounds"/>
                    </mxGeometry>
                </mxCell>
                <mxCell id="253" style="shape=tableRow;horizontal=0;startSize=0;swimlaneHead=0;swimlaneBody=0;top=0;left=0;bottom=0;right=0;collapsible=0;dropTarget=0;fillColor=none;points=[[0,0.5],[1,0.5]];portConstraint=eastwest;fontColor=#000000;align=left;" vertex="1" parent="250">
                    <mxGeometry y="29" width="180" height="29" as="geometry"/>
                </mxCell>
                <mxCell id="254" value="&lt;b&gt;ID&lt;/b&gt;" style="shape=partialRectangle;html=1;whiteSpace=wrap;connectable=0;overflow=hidden;fillColor=none;top=0;left=0;bottom=0;right=0;pointerEvents=1;fontColor=#000000;align=left;" vertex="1" parent="253">
                    <mxGeometry width="180" height="29" as="geometry">
                        <mxRectangle width="180" height="29" as="alternateBounds"/>
                    </mxGeometry>
                </mxCell>
                <mxCell id="255" value="" style="shape=tableRow;horizontal=0;startSize=0;swimlaneHead=0;swimlaneBody=0;top=0;left=0;bottom=0;right=0;collapsible=0;dropTarget=0;fillColor=none;points=[[0,0.5],[1,0.5]];portConstraint=eastwest;fontColor=#000000;align=left;" vertex="1" parent="250">
                    <mxGeometry y="58" width="180" height="29" as="geometry"/>
                </mxCell>
                <mxCell id="256" value="&lt;b&gt;gebruiker_ID&lt;/b&gt;" style="shape=partialRectangle;html=1;whiteSpace=wrap;connectable=0;overflow=hidden;fillColor=none;top=0;left=0;bottom=0;right=0;pointerEvents=1;fontColor=#000000;align=left;" vertex="1" parent="255">
                    <mxGeometry width="180" height="29" as="geometry">
                        <mxRectangle width="180" height="29" as="alternateBounds"/>
                    </mxGeometry>
                </mxCell>
                <mxCell id="257" style="shape=tableRow;horizontal=0;startSize=0;swimlaneHead=0;swimlaneBody=0;top=0;left=0;bottom=0;right=0;collapsible=0;dropTarget=0;fillColor=none;points=[[0,0.5],[1,0.5]];portConstraint=eastwest;fontColor=#000000;align=left;" vertex="1" parent="250">
                    <mxGeometry y="87" width="180" height="29" as="geometry"/>
                </mxCell>
                <mxCell id="258" value="beordeling" style="shape=partialRectangle;html=1;whiteSpace=wrap;connectable=0;overflow=hidden;fillColor=none;top=0;left=0;bottom=0;right=0;pointerEvents=1;fontColor=#000000;align=left;" vertex="1" parent="257">
                    <mxGeometry width="180" height="29" as="geometry">
                        <mxRectangle width="180" height="29" as="alternateBounds"/>
                    </mxGeometry>
                </mxCell>
                <mxCell id="259" style="shape=tableRow;horizontal=0;startSize=0;swimlaneHead=0;swimlaneBody=0;top=0;left=0;bottom=0;right=0;collapsible=0;dropTarget=0;fillColor=none;points=[[0,0.5],[1,0.5]];portConstraint=eastwest;fontColor=#000000;align=left;" vertex="1" parent="250">
                    <mxGeometry y="116" width="180" height="29" as="geometry"/>
                </mxCell>
                <mxCell id="260" value="" style="shape=partialRectangle;html=1;whiteSpace=wrap;connectable=0;overflow=hidden;fillColor=none;top=0;left=0;bottom=0;right=0;pointerEvents=1;fontColor=#000000;align=left;" vertex="1" parent="259">
                    <mxGeometry width="180" height="29" as="geometry">
                        <mxRectangle width="180" height="29" as="alternateBounds"/>
                    </mxGeometry>
                </mxCell>
            </root>
        </mxGraphModel>
    </diagram>
</mxfile>